<svg width="43" height="44" viewBox="0 0 43 44" fill="none" xmlns="http://www.w3.org/2000/svg">
<path d="M28.6292 2.92344L28.4547 3.89201C31.4466 5.00611 34.1541 6.83099 36.3396 9.24645C39.6824 12.9421 41.5234 17.7233 41.5234 22.7108C41.5234 22.7908 41.4589 22.8553 41.3789 22.8553C41.299 22.8553 41.2343 22.7906 41.2343 22.7108C41.2343 12.8154 34.0045 4.52317 24.2983 3.1286L23.7272 3.04654V3.62352V4.9146C23.7272 4.99463 23.6627 5.05913 23.5827 5.05913H19.3116C19.2318 5.05913 19.1671 4.99446 19.1671 4.9146V3.62352V3.04654L18.596 3.1286C8.88985 4.52317 1.65967 12.8154 1.65967 22.7108C1.65967 22.7906 1.595 22.8553 1.51514 22.8553C1.43527 22.8553 1.3706 22.7906 1.3706 22.7108C1.3706 17.7233 3.21157 12.9421 6.55477 9.24648C8.7399 6.83104 11.4474 5.00646 14.4393 3.89235L14.2648 2.92378H6.32732H5.96545L5.85237 3.26752C5.64604 3.89466 5.05495 4.34712 4.3625 4.34712C3.49818 4.34712 2.79428 3.64335 2.79428 2.77925C2.79428 1.91503 3.49829 1.21103 4.3625 1.21103C5.05491 1.21103 5.646 1.66345 5.85235 2.29091L5.96541 2.63471H6.32732H18.6671H19.1671V2.13471V0.643557C19.1671 0.563698 19.2318 0.499022 19.3116 0.499022H23.5827C23.6627 0.499022 23.7272 0.563526 23.7272 0.643557V2.13438V2.63438H24.2272H36.567H36.9289L37.042 2.29064C37.2483 1.66345 37.8394 1.21103 38.5315 1.21103C39.3958 1.21103 40.0997 1.9148 40.0997 2.77891C40.0997 3.64317 39.396 4.34712 38.5315 4.34712C37.8391 4.34712 37.248 3.8947 37.0417 3.26724L36.9286 2.92344H36.5667H28.6292ZM19.4562 4.27006V4.77006H19.9562H22.9382H23.4382V4.27006V2.89103V2.88868V2.78059V2.77891V2.77723V1.28809V0.788091H22.9382H19.9562H19.4562V1.28809V2.88969V2.89002V4.27006ZM39.8106 2.77891C39.8106 2.07327 39.2372 1.5001 38.5315 1.5001C37.8258 1.5001 37.2524 2.07328 37.2524 2.77891C37.2524 3.48474 37.8257 4.05806 38.5315 4.05806C39.2373 4.05806 39.8106 3.48474 39.8106 2.77891ZM3.08335 2.77925C3.08335 3.48488 3.65681 4.05806 4.3625 4.05806C5.06819 4.05806 5.64165 3.48488 5.64165 2.77925C5.64165 2.07341 5.06833 1.5001 4.3625 1.5001C3.65667 1.5001 3.08335 2.07341 3.08335 2.77925Z" fill="white" stroke="white" stroke-width="0.999998"/>
<mask id="path-2-inside-1" fill="white">
<path d="M23.4336 7.44797C23.3198 7.24387 23.1046 7.11731 22.871 7.11731H20.0233C19.79 7.11731 19.5745 7.24387 19.4607 7.44797L10.9182 22.7526C10.8649 22.8486 10.8367 22.9567 10.8367 23.0668V23.7788C10.8367 23.9007 10.8712 24.0199 10.9364 24.1229L14.583 29.8965H12.1929C11.837 29.8965 11.5483 30.1849 11.5483 30.5411C11.5483 30.8969 11.837 31.1856 12.1929 31.1856H12.2603V33.3884C12.2603 33.7446 12.5487 34.033 12.9049 34.033H13.6837V36.2361C13.6837 36.592 13.9724 36.8807 14.3282 36.8807H15.1077V39.0811V39.0835V39.0862V43.3545C15.1077 43.7107 15.3964 43.9991 15.7522 43.9991H27.142C27.4979 43.9991 27.7866 43.7107 27.7866 43.3545V36.8807H28.5657C28.9215 36.8807 29.2102 36.592 29.2102 36.2361V34.033H29.9894C30.3452 34.033 30.6339 33.7446 30.6339 33.3884V31.1856H30.7014C31.0572 31.1856 31.3459 30.8969 31.3459 30.5411C31.3459 30.1849 31.0572 29.8965 30.7014 29.8965H29.9911C29.9904 29.8965 29.99 29.8965 29.9894 29.8965C29.9887 29.8965 29.9884 29.8965 29.9877 29.8965H28.3112L31.9579 24.1229C32.023 24.0199 32.0576 23.9007 32.0576 23.7788V23.0668C32.0576 22.9567 32.0294 22.8486 31.9757 22.7526L23.4336 7.44797ZM21.4473 21.2198C21.877 21.2198 22.2264 21.5693 22.2264 21.999C22.2264 22.4287 21.877 22.7781 21.4473 22.7781C21.0176 22.7781 20.6682 22.4287 20.6682 21.999C20.6682 21.5693 21.0176 21.2198 21.4473 21.2198ZM27.9212 35.5912H20.8494C20.4936 35.5912 20.2049 35.8799 20.2049 36.2358C20.2049 36.592 20.4936 36.8803 20.8494 36.8803H26.4975V38.4386H25.718C25.3622 38.4386 25.0735 38.727 25.0735 39.0831C25.0735 39.4393 25.3622 39.7277 25.718 39.7277H26.4971V42.71H16.3968V39.728H17.1759C17.5318 39.728 17.8205 39.4397 17.8205 39.0835C17.8205 38.7273 17.5318 38.4389 17.1759 38.4389H16.3968V36.8803H18.0954C18.4516 36.8803 18.7399 36.592 18.7399 36.2358C18.7399 35.8799 18.4516 35.5912 18.0954 35.5912H14.9728V34.033H27.9212V35.5912ZM29.3448 32.7439H13.5494V31.1856H27.14H27.1413H27.1427H29.3448V32.7439ZM30.7685 23.5922L29.4842 25.6255H27.8537C27.4979 25.6255 27.2092 25.9138 27.2092 26.27C27.2092 26.6262 27.4979 26.9146 27.8537 26.9146H28.6701L26.7865 29.8965H22.0915V28.4054C22.0915 28.0495 21.8031 27.7608 21.447 27.7608C21.0911 27.7608 20.8024 28.0495 20.8024 28.4054V29.8965H16.1074L14.2242 26.9146H15.0402C15.3964 26.9146 15.6848 26.6262 15.6848 26.27C15.6848 25.9138 15.3964 25.6255 15.0402 25.6255H13.4098L12.1257 23.5922V23.2343L20.4019 8.40638H20.8024V20.0342C19.977 20.3057 19.3787 21.0835 19.3787 21.9986C19.3787 23.1393 20.3066 24.0672 21.447 24.0672C22.5877 24.0672 23.5155 23.1393 23.5155 21.9986C23.5155 21.0835 22.9173 20.3054 22.0918 20.0342V8.40638H22.4923L30.7685 23.2343V23.5922Z"/>
</mask>
<path d="M23.4336 7.44797C23.3198 7.24387 23.1046 7.11731 22.871 7.11731H20.0233C19.79 7.11731 19.5745 7.24387 19.4607 7.44797L10.9182 22.7526C10.8649 22.8486 10.8367 22.9567 10.8367 23.0668V23.7788C10.8367 23.9007 10.8712 24.0199 10.9364 24.1229L14.583 29.8965H12.1929C11.837 29.8965 11.5483 30.1849 11.5483 30.5411C11.5483 30.8969 11.837 31.1856 12.1929 31.1856H12.2603V33.3884C12.2603 33.7446 12.5487 34.033 12.9049 34.033H13.6837V36.2361C13.6837 36.592 13.9724 36.8807 14.3282 36.8807H15.1077V39.0811V39.0835V39.0862V43.3545C15.1077 43.7107 15.3964 43.9991 15.7522 43.9991H27.142C27.4979 43.9991 27.7866 43.7107 27.7866 43.3545V36.8807H28.5657C28.9215 36.8807 29.2102 36.592 29.2102 36.2361V34.033H29.9894C30.3452 34.033 30.6339 33.7446 30.6339 33.3884V31.1856H30.7014C31.0572 31.1856 31.3459 30.8969 31.3459 30.5411C31.3459 30.1849 31.0572 29.8965 30.7014 29.8965H29.9911C29.9904 29.8965 29.99 29.8965 29.9894 29.8965C29.9887 29.8965 29.9884 29.8965 29.9877 29.8965H28.3112L31.9579 24.1229C32.023 24.0199 32.0576 23.9007 32.0576 23.7788V23.0668C32.0576 22.9567 32.0294 22.8486 31.9757 22.7526L23.4336 7.44797ZM21.4473 21.2198C21.877 21.2198 22.2264 21.5693 22.2264 21.999C22.2264 22.4287 21.877 22.7781 21.4473 22.7781C21.0176 22.7781 20.6682 22.4287 20.6682 21.999C20.6682 21.5693 21.0176 21.2198 21.4473 21.2198ZM27.9212 35.5912H20.8494C20.4936 35.5912 20.2049 35.8799 20.2049 36.2358C20.2049 36.592 20.4936 36.8803 20.8494 36.8803H26.4975V38.4386H25.718C25.3622 38.4386 25.0735 38.727 25.0735 39.0831C25.0735 39.4393 25.3622 39.7277 25.718 39.7277H26.4971V42.71H16.3968V39.728H17.1759C17.5318 39.728 17.8205 39.4397 17.8205 39.0835C17.8205 38.7273 17.5318 38.4389 17.1759 38.4389H16.3968V36.8803H18.0954C18.4516 36.8803 18.7399 36.592 18.7399 36.2358C18.7399 35.8799 18.4516 35.5912 18.0954 35.5912H14.9728V34.033H27.9212V35.5912ZM29.3448 32.7439H13.5494V31.1856H27.14H27.1413H27.1427H29.3448V32.7439ZM30.7685 23.5922L29.4842 25.6255H27.8537C27.4979 25.6255 27.2092 25.9138 27.2092 26.27C27.2092 26.6262 27.4979 26.9146 27.8537 26.9146H28.6701L26.7865 29.8965H22.0915V28.4054C22.0915 28.0495 21.8031 27.7608 21.447 27.7608C21.0911 27.7608 20.8024 28.0495 20.8024 28.4054V29.8965H16.1074L14.2242 26.9146H15.0402C15.3964 26.9146 15.6848 26.6262 15.6848 26.27C15.6848 25.9138 15.3964 25.6255 15.0402 25.6255H13.4098L12.1257 23.5922V23.2343L20.4019 8.40638H20.8024V20.0342C19.977 20.3057 19.3787 21.0835 19.3787 21.9986C19.3787 23.1393 20.3066 24.0672 21.447 24.0672C22.5877 24.0672 23.5155 23.1393 23.5155 21.9986C23.5155 21.0835 22.9173 20.3054 22.0918 20.0342V8.40638H22.4923L30.7685 23.2343V23.5922Z" fill="white" stroke="white" stroke-width="2" mask="url(#path-2-inside-1)"/>
</svg>
